<?xml version="1.0" encoding="utf-8"?>
<!-- Generator: Adobe Illustrator 27.5.0, SVG Export Plug-In . SVG Version: 6.00 Build 0)  -->
<svg version="1.1" id="Layer_1" xmlns="http://www.w3.org/2000/svg" xmlns:xlink="http://www.w3.org/1999/xlink" x="0px" y="0px"
	 viewBox="0 0 450 450" style="enable-background:new 0 0 450 450;" xml:space="preserve">
<g>
	<path style="fill:#FFB294;" d="M181.092,125.715c0.204-0.132,6.402-1.953,6.402-1.953s5.815-1.472,10.044-5.039
		c3.887-3.277,5.256-4.638,5.256-4.638c1.179-1.323,1.158-2.369-0.585-1.49l3.625-3.719c1.031-1.224,0.631-2.219-0.718-1.56
		l-3.129,2.042l3.887-3.176c1.222-1.304,0.499-2.494-1.053-1.7l-9.11,5.659l6.894-6.163c1.136-1.166,0.202-2.321-1.26-1.366
		l-11.027,7.719l-0.316-0.448c0,0,1.801-4.925,1.752-6.138c0.286-2.018-1.378-2.689-2.046-0.653c0,0-1.236,4.518-2.397,5.646
		c-1.162,1.128-3.408,7.225-3.919,9.912c-0.511,2.687-5.133,1.692-5.133,1.692L181.092,125.715z"/>
	<path style="fill:#227FBC;" d="M144.579,95.126c0,0,0.806,36.529,17.624,35.269c3.781,0.124,8.016-0.207,12.789-1.467
		c4.132-1.095,8.678-2.872,13.699-5.661c0,0-3.74-2.107-5.103-4.71l-19.092-1.199l-7.645-33.719
		c-3.016-6.033-5.434-2.066-10.951-2.294L144.579,95.126z"/>
	<path style="opacity:0.5;fill:#4488B8;" d="M144.579,95.126c0,0,0.806,36.529,17.624,35.269c3.781,0.124,8.016-0.207,12.789-1.467
		l-12.479-3.203c-0.62-14.298-7.066-36.943-16.612-44.381L144.579,95.126z"/>
	<g>
		<path style="fill:#FFB294;" d="M160.849,261.489c-5.586-1.653-10.23-4.594-11.955-8.743c-3.542,1.02-7.347,0.633-10.529-1.012
			c-0.02,0.173-0.036,0.351-0.064,0.515c-2.868,3.769-4.343,7.49-1.53,11.057l8.446-0.04l8.367,5.508l9.067-0.167
			C163.724,265.566,164.411,262.68,160.849,261.489z"/>
		<path style="fill:#227FBC;" d="M137.457,253.421c-4.267,3.144-4.498,8.552-3.169,12.788c2.773,4.154,8.767,1.393,12.855,2.563
			c9.403,2.691,9.419,4.974,13.931,4.869c7.294-0.17,12.1-3.427,11.707-5.945c-0.322-2.064-3.475-4.132-8.604-6.147l-8.288-2.112
			c1.28,0.775,3.032,1.434,4.96,2.051c2.612,1.784,1.687,3.675-0.743,5.961c-2.711,1.241-6.102,0.027-10.442-2.361l-9.35-4.672
			C137.817,258.769,136.645,256.535,137.457,253.421z"/>
		<path style="fill:#FFB294;" d="M103.672,259.333c-0.015,0.186-0.022,0.37-0.04,0.558c-1.322,2.456-1.242,5.998-0.942,9.864
			c0,0,6.155,9.947,6.28,10.444c0.126,0.497,8.542,2.652,8.542,2.652l2.637-6.88c-3.568-3.552-4.321-7.627-5.667-13.344
			C110.626,263.122,106.929,262.611,103.672,259.333z"/>
		<path style="fill:#227FBC;" d="M103.631,259.891c-2.95,2.525-2.826,7.626-2.198,11.439c1.382,3.067,3.369,4.947,5.652,9.449
			l2.152,2.959c4.294,3.766,11.979,4.253,14.678,2.263c1.759-3.233-0.342-6.418-5.617-12.069c2.01,4.325-0.286,6.433-5.502,5.853
			c-2.479-0.494-4.142-3.979-6.842-8.703C103.479,266.118,101.82,263.206,103.631,259.891z"/>
		<path style="fill:#CF3837;" d="M150.874,254.291c-3.061-7.363,5.087-37.404,7.087-55.258
			c-4.769-23.623-10.57-45.083-17.782-63.584l-18.314,22.221c4.564,16.935,10.308,32.845,18.118,46.96
			c-10.193,15.576-5.329,39.692-6.412,48.909C136.754,255.184,144.23,257.561,150.874,254.291z"/>
		<path style="fill:#F54251;" d="M98.584,259.886c0.821,2.026,2.474,3.573,4.501,4.586c4.181,2.101,9.94,1.899,13.257-1.194
			c-3.69-15.699,1.706-37.466,6.292-50.819c3.648-12.094,5.045-27.324,6.452-42.233c7.028-6.9,14.185-15.4,13.257-27.217
			c2.208-14.174-34.576-21.106-39.962-4.031c-4.575,11.156-2.41,19.623,1.056,29.446c0.544,15.923-0.021,26.833,0.544,39.705
			C92.995,230.579,99.917,243.334,98.584,259.886z"/>
		<path style="opacity:0.5;fill:#CF3837;" d="M98.584,259.886c0.821,2.026,2.474,3.573,4.501,4.586
			c-4.501-19.015-2.698-37.562,5.45-55.65c0,0,2.229-17.405,7.476-25.511c2.314-3.551,0.32-7.018,0.437-8.745
			c0.202-2.858,2.752-2.794,1.877-4.81c-1.269-2.89-2.015-4.16-3.285-5.311c-2.048-1.856-2.122-5.077-0.203-7.07
			c1.962-2.016,4.661-3.563,7.839-4.821l-20.296-13.577c-4.575,11.156-2.41,19.623,1.056,29.446
			c0.544,15.923-0.021,26.833,0.544,39.705C92.995,230.579,99.917,243.334,98.584,259.886z"/>
		<path style="fill:#227FBC;" d="M100.269,141.217c2.752,2.325,5.386,4.245,7.903,5.812c0.064,0.043,0.138,0.075,0.181,0.117
			c6.911,4.255,12.937,5.823,18.098,5.514c7.519-0.448,13.171-4.789,17.064-10.495c-0.8-4.831-0.928-12.851,1.376-17.576
			c0.053-0.128,0.117-0.256,0.181-0.373c0.043-0.053,0.075-0.107,0.096-0.16c0.042-0.085,0.096-0.17,0.149-0.256
			c0.075-0.15,1.248,0.042,2.314-0.128c1.014-0.17,2.368-0.49,3.786-1.12c2.549-1.141,5.279-3.296,6.527-7.369
			c0.842-2.752-0.299-6.89-1.642-10.335c-1.611-4.127-1.835-8.681-0.661-12.958c2.218-8.116,2.133-15.742-6.687-19.72
			c0,0-35.728,5.29-41.604,20.264c-2.346,5.962,0.64,10.452,1.066,15.496c0.106,1.215,0.192,2.495,0.245,3.786
			c0.192,3.637,0.192,7.38-0.245,10.089C106.828,131.746,100.269,141.217,100.269,141.217z"/>
		<path style="opacity:0.5;fill:#4488B8;" d="M100.269,141.217c2.656,2.335,5.3,4.266,7.903,5.812
			c0.064,0.043,0.138,0.075,0.181,0.117c6.911,4.255,12.937,5.823,18.098,5.514c7.519-0.448,13.171-4.789,17.064-10.495
			c-0.8-4.831-0.928-12.851,1.376-17.576c0.053-0.128,0.117-0.256,0.181-0.373c-1.066,1.749-4.884,6.836-12.531,5.311
			c-16.424-2.848-7.391-28.806-14.472-33.467c-3.776-0.437-5.738,1.557-8.692,10.036c0.139,1.653-0.17,3.626-0.714,5.621
			c0.192,3.637,0.192,7.38-0.245,10.089C106.828,131.746,100.269,141.217,100.269,141.217z"/>
		<path style="fill:#FFB294;" d="M148.35,80.713c0,0-1.074,11.389-6.326,11.959c-5.253,0.571-14.229-16.785-14.229-16.785
			l10.277-6.664L148.35,80.713z"/>
		<path style="opacity:0.5;fill:#FFB294;" d="M134.626,77.309c-1.134,13.492,1.271,24.403,7.82,22.813
			c5.349-1.3,5.6-14.847,5.6-14.847l-0.701-7.255L134.626,77.309z"/>
		<path d="M154.601,53.52c0,0,17.634,14.426,0.244,26.664l-6.495-16.065L154.601,53.52z"/>
		<path style="fill:#FFB294;" d="M144.029,51.971c0,0,11.806,2.008,14.119,14.24c0,0,1.946,4.564-2.714,11.593
			c0,0-2.735,9.696-8.666,10.989c0,0-5.842-0.834-8.581-5.004c-4.359-6.638-3.012-8.084-3.012-8.084s-6.116-5.66-3.195-14.879
			C134.902,51.606,144.029,51.971,144.029,51.971z"/>
		<path d="M158.551,71.414c0,0-12.148,5.69-18.355-0.639c0,0-0.533,3.651-4.077,3.469l-0.943,1.46l-3.281,9.762
			c0,0-10.502-11.004-4.66-27.836c0,0,4.66-13.601,21.086-8.124C159.686,53.297,162.741,66.251,158.551,71.414z"/>
		<path style="fill:#FFB294;" d="M133.499,70.847c-0.929,0.293-1.496,1.283-1.588,2.252c-0.092,0.969,0.197,1.93,0.488,2.859
			c0.176,0.561,0.361,1.137,0.738,1.589c0.377,0.452,0.994,0.754,1.558,0.589c1.269-0.372,2.247-2.861,2.109-4.094
			C136.626,72.46,135.448,70.233,133.499,70.847z"/>
		<path style="fill:#FFB294;" d="M99.566,158.963l1.156,3.563l1.84,8.63l2.535,5.03l3.375,4.33c0.559,0.86,1.519,0.86,1.373,0.182
			l1.399,1.867c1.009,1.352,1.825,0.724,1.177-0.667l-3.575-7.025l4.438,6.738c0.853,1.259,1.808,0.594,1.08-0.783l-3.897-7.979
			l4.066,5.394c1.086,1.41,2.051,0.995,1.267-0.702l-5.254-10.393l3.614,2.325l2.049,0.989c1.366,0.594,1.835-0.702,0.468-1.626
			l-1.633-1.312l-2.279-2.975l-7.171-3.922l-3.066-4.432L99.566,158.963z"/>
		<path style="fill:#227FBC;" d="M118.382,105.347l-16.757,21.561l5.749,35.401c-1.684,2.844-4.092,3.668-7.124,2.752
			c0,0-11.816-31.567-10.035-40.146c1.781-8.58,19.445-36.158,19.445-36.158C121.561,88.816,124.745,97.547,118.382,105.347z"/>
		<g>
			<path style="fill:#F5E8D9;" d="M145.393,123.651c0,0,1.173,0.192,2.239,0.021c1.014-0.17,2.368-0.49,3.786-1.12
				c-3.264,0.138-4.746-1.611-5.759-3.861C146.001,120.292,146.011,121.913,145.393,123.651z"/>
		</g>
	</g>
	<g>
		<g>
			<path d="M91.889,333.16l174.207-100.578c4.785-2.763,12.544-2.763,17.329,0l82.181,47.447l7.73-1.5v8.893
				c0,1.811-1.197,3.621-3.59,5.003L183.904,399.721c-4.785,2.763-12.544,2.763-17.329,0l-86.322-49.838
				c-2.337-1.349-3.524-3.108-3.578-4.876c-0.011,0.002-0.011-8.892-0.011-8.892L91.889,333.16z"/>
			<path style="fill:#4D4D4D;" d="M369.747,273.884l-86.322-49.838c-4.785-2.763-12.544-2.763-17.329,0L80.253,331.343
				c-4.785,2.763-4.785,7.242,0,10.005l86.322,49.838c4.786,2.763,12.544,2.763,17.329,0l185.843-107.296
				C374.532,281.126,374.532,276.647,369.747,273.884z"/>
			<path style="fill:#FFFFFF;" d="M94.804,326.982l173.911-100.407c2.752-1.589,7.21-1.599,9.964-0.007l86.306,49.846
				c1.616,0.923,2.284,2.195,1.988,3.405c-0.172,0.851-0.842,1.68-1.986,2.34L191.076,382.566c-2.751,1.588-7.203,1.573-9.947-0.004
				l-86.323-49.835c-0.888-0.505-1.491-1.129-1.779-1.781C92.344,329.573,92.947,328.053,94.804,326.982z"/>
			<path style="fill:#25C9E6;" d="M95.013,328.607l173.911-100.407c2.752-1.589,7.203-1.573,9.947,0.003l86.323,49.836
				c0.888,0.504,1.482,1.112,1.779,1.78c-0.172,0.851-0.842,1.68-1.986,2.34L191.076,382.566c-2.751,1.588-7.203,1.573-9.947-0.004
				l-86.323-49.835c-0.888-0.505-1.491-1.129-1.779-1.781C93.198,330.096,93.869,329.267,95.013,328.607z"/>
			<polygon style="opacity:0.5;fill:#FFFFFF;" points="125.93,348.486 152.324,363.723 228.912,358.511 260.039,340.54 			"/>
			<polygon style="opacity:0.5;fill:#FFFFFF;" points="303.742,315.308 321.722,304.928 122.756,314.8 105.189,324.943 			"/>
			<path style="opacity:0.5;fill:#FFFFFF;" d="M328.863,300.805l35.168-20.304c0.29-0.167,0.514-0.337,0.678-0.493
				c-0.135-0.106-0.294-0.211-0.472-0.311l-22.673-13.09l-154.366,10.988l-58.671,33.873L328.863,300.805z"/>
			<path style="fill:#FFF1DB;" d="M142.985,365.166l-20.929-12.084c-2.196-1.267-5.789-1.267-7.985,0
				c-2.196,1.268-2.196,3.342,0,4.61L135,369.776c2.196,1.268,5.789,1.268,7.985,0C145.181,368.509,145.181,366.434,142.985,365.166
				z"/>
			<g>
				<defs>
					<path id="SVGID_1_" d="M95.013,328.607l173.911-100.407c2.752-1.589,7.203-1.573,9.947,0.003l86.323,49.836
						c0.888,0.504,1.482,1.112,1.779,1.78c-0.172,0.851-0.842,1.68-1.986,2.34L191.076,382.566
						c-2.751,1.588-7.203,1.573-9.947-0.004l-86.323-49.835c-0.888-0.505-1.491-1.129-1.779-1.781
						C93.198,330.096,93.869,329.267,95.013,328.607z"/>
				</defs>
				<clipPath id="SVGID_00000080196397617032942140000008171801738087551895_">
					<use xlink:href="#SVGID_1_"  style="overflow:visible;"/>
				</clipPath>
			</g>
		</g>
		<g>
			<polygon style="opacity:0.5;fill:#07BFE8;" points="310.108,288.409 325.762,298.587 292.598,317.52 279.228,309.991 
				242.096,331.968 254.172,339.816 209.492,365.348 199.099,356.766 185.772,351.72 211.526,333.779 197.546,324.463 
				178.311,335.547 138.031,311.641 150.095,303.239 			"/>
			<g>
				<g>
					<polygon style="fill:#D33946;" points="206.9,294.583 175.877,276.672 175.877,235.892 206.9,253.803 					"/>
					<polygon style="fill:#FBBD80;" points="206.9,253.803 175.877,235.892 209.306,216.592 240.328,234.503 					"/>
					<polygon style="fill:#AD2F2E;" points="240.328,275.283 206.9,294.583 206.9,253.803 240.328,234.503 					"/>
					<polygon style="fill:#F54251;" points="207.025,264.004 174.568,245.266 174.568,233.775 207.025,252.514 					"/>
					<polygon style="fill:#F5626E;" points="207.025,252.514 174.568,233.775 209.181,213.792 241.637,232.531 					"/>
					<polygon style="fill:#CF3837;" points="241.637,244.021 207.025,264.004 207.025,252.514 241.637,232.531 					"/>
				</g>
				<g>
					<polygon style="fill:#B0763C;" points="178.645,331.02 219.156,307.631 219.156,279.85 178.645,303.239 					"/>
					<polygon style="fill:#FBBD80;" points="178.645,303.239 219.156,279.85 185.727,260.55 145.216,283.939 					"/>
					<polygon style="fill:#E49E59;" points="145.216,311.72 178.645,331.02 178.645,303.239 145.216,283.939 					"/>
					<polygon style="fill:#C78544;" points="178.52,313.44 220.465,289.223 220.465,277.733 178.52,301.95 					"/>
					<polygon style="fill:#FBBD80;" points="178.52,301.95 220.465,277.733 185.853,257.749 143.908,281.966 					"/>
					<polygon style="fill:#FBAE62;" points="143.908,293.457 178.52,313.44 178.52,301.95 143.908,281.966 					"/>
				</g>
				<g>
					<polygon style="fill:#B0763C;" points="293.443,314.061 261.013,295.337 261.013,273.098 293.443,291.821 					"/>
					<polygon style="fill:#FBBD80;" points="293.443,291.821 261.013,273.098 287.773,257.647 320.204,276.371 					"/>
					<polygon style="fill:#E49E59;" points="320.204,298.611 293.443,314.061 293.443,291.821 320.204,276.371 					"/>
					<polygon style="fill:#C78544;" points="293.544,299.988 259.965,280.601 259.965,271.403 293.544,290.79 					"/>
					<polygon style="fill:#FBBD80;" points="293.544,290.79 259.965,271.403 287.673,255.405 321.252,274.792 					"/>
					<polygon style="fill:#FFF1DB;" points="292.903,286.927 266.655,271.773 288.314,259.268 314.562,274.422 					"/>
					<polygon style="fill:#FBBD80;" points="280.946,261.997 283.836,260.329 314.284,277.907 311.393,279.576 					"/>
					<polygon style="fill:#FBBD80;" points="273.939,265.142 276.83,263.474 307.277,281.052 304.387,282.721 					"/>
					<polygon style="fill:#FBBD80;" points="266.933,268.288 269.823,266.619 300.271,284.197 297.38,285.866 					"/>
					<polygon style="fill:#FBAE62;" points="321.252,283.99 293.544,299.988 293.544,290.79 321.252,274.792 					"/>
				</g>
				<g>
					<g>
						<polygon style="fill:#86A634;" points="188.117,281.347 206.279,270.861 206.279,250.786 188.117,261.272 						"/>
						<polygon style="fill:#E5FFA1;" points="188.117,257.02 206.279,246.534 187.241,235.542 169.078,246.029 						"/>
						<polygon style="fill:#C9E876;" points="169.078,270.355 188.117,281.347 188.117,261.272 169.078,250.281 						"/>
						<polygon style="fill:#9ABD3A;" points="188.045,267.082 207.025,256.125 207.025,245.329 188.045,256.287 						"/>
						<polygon style="fill:#EFFFC7;" points="188.045,256.287 207.025,245.329 187.312,233.947 168.333,244.906 						"/>
						<polygon style="fill:#DEFF82;" points="168.333,255.701 188.045,267.082 188.045,256.287 168.333,244.906 						"/>
					</g>
					<polygon style="fill:#86A634;" points="187.85,250.332 196.712,245.216 187.507,239.902 178.645,245.018 					"/>
				</g>
				<path style="fill:#FFF1DB;" d="M173.55,288.695c-3.089,1.784-3.089,4.675,0,6.459c3.089,1.784,8.098,1.784,11.187,0
					c3.089-1.784,3.089-4.675,0-6.459C181.647,286.911,176.639,286.911,173.55,288.695z"/>
				<polygon style="fill:#FFF1DB;" points="158.919,277.384 174.261,286.242 175.877,285.309 160.535,276.451 				"/>
				<polygon style="fill:#FFF1DB;" points="155.745,279.304 171.087,288.162 172.703,287.229 157.361,278.371 				"/>
				<polygon style="fill:#FFF1DB;" points="152.571,281.224 167.913,290.082 169.529,289.149 154.187,280.291 				"/>
				<g>
					<path style="fill:#FBAE62;" d="M218.628,245.549c0.754,0,1.364-0.611,1.364-1.364v-8.245c0-7.259,5.953-16.602,13.271-20.827
						c3.619-2.089,6.967-2.55,9.187-1.269c1.754,1.012,2.719,3.138,2.719,5.984v8.245c0,0.753,0.611,1.364,1.364,1.364
						c0.754,0,1.364-0.611,1.364-1.364v-8.245c0-3.863-1.45-6.827-4.084-8.348c-3.086-1.783-7.431-1.32-11.916,1.269
						c-8.07,4.659-14.635,15.062-14.635,23.19v8.245C217.264,244.938,217.875,245.549,218.628,245.549z"/>
					<polygon style="fill:#0B66A3;" points="197.551,329.603 259.041,294.101 264.107,215.695 202.617,251.197 					"/>
					<polygon style="fill:#29ABE2;" points="259.041,294.101 269.593,296.918 280.145,306.285 274.414,221.646 264.107,215.695 
											"/>
					<polygon style="fill:#227FBC;" points="212.926,257.152 213.693,268.508 214.081,274.176 218.654,341.79 280.142,306.289 
						275.55,238.366 275.172,232.818 274.414,221.642 					"/>
					<polygon style="fill:#29ABE2;" points="197.546,329.598 208.105,332.417 218.654,341.79 214.081,274.176 213.693,268.508 
						212.926,257.152 202.617,251.196 201.889,262.432 201.541,267.861 					"/>
					<path style="fill:#FBAE62;" d="M228.646,254.188c0.753,0,1.364-0.611,1.364-1.365v-8.244c0-7.26,5.954-16.602,13.271-20.827
						c3.617-2.089,6.966-2.551,9.186-1.269c1.754,1.012,2.719,3.137,2.719,5.985v8.244c0,0.754,0.611,1.365,1.364,1.365
						c0.754,0,1.365-0.611,1.365-1.365v-8.244c0-3.863-1.45-6.827-4.084-8.348c-3.087-1.783-7.431-1.321-11.915,1.269
						c-8.07,4.66-14.635,15.063-14.635,23.19v8.244C227.281,253.577,227.892,254.188,228.646,254.188z"/>
					<path style="fill:#FFF1DB;" d="M230.788,290.427c0.938,9.327,8.786,12.523,17.53,7.138
						c8.744-5.385,15.072-17.312,14.135-26.639c-0.938-9.327-8.786-12.523-17.53-7.138
						C236.178,269.173,229.85,281.1,230.788,290.427z"/>
				</g>
				<g>
					<path style="fill:#FBAE62;" d="M206.83,309.293c0.561,0,1.016-0.455,1.016-1.016v-6.139c0-5.404,4.432-12.36,9.88-15.505
						c2.694-1.555,5.187-1.899,6.84-0.945c1.305,0.754,2.024,2.336,2.024,4.455v6.138c0,0.561,0.455,1.016,1.016,1.016
						c0.561,0,1.016-0.455,1.016-1.016v-6.138c0-2.876-1.08-5.083-3.04-6.215c-2.298-1.327-5.533-0.983-8.871,0.944
						c-6.008,3.469-10.896,11.214-10.896,17.265v6.139C205.814,308.838,206.269,309.293,206.83,309.293z"/>
					<polygon style="fill:#B61C1C;" points="191.611,351.403 233.609,330.43 234.544,287.339 195.382,309.949 					"/>
					<polygon style="fill:#F54251;" points="233.609,330.43 241.464,332.528 249.32,339.501 245.054,293.407 234.544,287.339 					
						"/>
					<polygon style="fill:#CF3837;" points="210.158,362.111 249.32,339.501 245.054,293.407 205.892,316.017 					"/>
					<polygon style="fill:#FFF1DB;" points="243.48,300.092 244.138,307.204 211.266,350.398 210.55,342.665 					"/>
					<polygon style="fill:#FFF1DB;" points="245.391,320.737 222.382,352.533 212.017,358.517 211.526,353.213 244.404,310.074 
											"/>
					<polygon style="fill:#F54251;" points="191.611,351.403 200.412,354.047 210.158,362.111 205.892,316.017 195.382,309.949 
											"/>
					<path style="fill:#FBAE62;" d="M214.288,315.724c0.561,0,1.016-0.455,1.016-1.016v-6.138c0-5.404,4.432-12.36,9.88-15.505
						c2.693-1.555,5.186-1.899,6.839-0.945c1.306,0.754,2.025,2.336,2.025,4.456v6.138c0,0.561,0.455,1.016,1.016,1.016
						c0.561,0,1.016-0.455,1.016-1.016v-6.138c0-2.876-1.08-5.083-3.04-6.215c-2.298-1.327-5.532-0.983-8.871,0.945
						c-6.008,3.469-10.896,11.214-10.896,17.265v6.138C213.272,315.269,213.727,315.724,214.288,315.724z"/>
				</g>
				<polygon style="fill:#FFF1DB;" points="213.693,268.508 214.081,274.176 275.55,238.366 275.172,232.818 213.813,268.568 				
					"/>
				<path style="fill:#A9D8E8;" d="M201.541,267.861l12.421,6.385c0.119-0.07-0.269-5.738-0.269-5.738l-11.804-6.076
					L201.541,267.861z"/>
			</g>
		</g>
	</g>
</g>
</svg>
